#!OML:ASF E:\Steps\Project 1\Capture day 1\Session 2\Subject.ASF
:FULLY-SPECIFIED
:DEGREES
389
root 12.3294 18.7509 9.92621 -152.684 1.97358 173.776
lowerback -18.1565 -3.53264 -8.13318
upperback 3.30345 -2.62519 -0.799269
thorax 14.4093 -1.80042 2.91683
lowerneck -4.47436 -1.67988 -0.800115
upperneck 24.3304 -0.884737 2.09089
head 8.27157 0.347306 0.855207
rclavicle -4.7112e-014 -3.55825e-014
rhumerus -37.2476 -17.1203 -78.2446
rradius 36.1233
rwrist -2.48674
rhand -8.80604 -412.252
rfingers 7.12502
rthumb 17.1331 -81.5167
lclavicle -4.7112e-014 -3.55825e-014
lhumerus -17.7673 -10.2641 81.3162
lradius 38.2005
lwrist 1.27251
lhand -22.9834 -14.8343
lfingers 7.12502
lthumb 3.45915 15.1173
rfemur -43.3772 11.0679 11.185
rtibia 24.9936
rfoot -19.4087 -8.17597
rtoes -13.9735
lfemur -39.3833 -9.67559 -25.4699
ltibia 19.2687
lfoot -5.22905 -3.33901
ltoes -20.3914
390
root 12.3223 18.7494 9.87979 -152.781 1.84091 173.717
lowerback -18.1273 -3.42627 -7.91878
upperback 3.14076 -2.55859 -0.730431
thorax 14.1789 -1.7483 2.90212
lowerneck -4.11592 -1.73523 -0.825827
upperneck 24.3688 -0.838059 1.764
head 8.21751 0.351969 0.756613
rclavicle -3.3048e-014 1.30204e-014
rhumerus -37.5537 -17.1911 -78.042
rradius 36.0844
rwrist -2.88919
rhand -9.37946 -411.621
rfingers 7.12502
rthumb 16.5811 -80.9325
lclavicle -3.3048e-014 1.30204e-014
lhumerus -18.0976 -10.0993 81.7606
lradius 37.2595
lwrist 0.808286
lhand -22.6961 -14.7029
lfingers 7.12502
lthumb 3.73657 15.2441
rfemur -43.2659 11.0159 11.0969
rtibia 25.2351
rfoot -19.3157 -7.73582
rtoes -12.2303
lfemur -39.0702 -9.91364 -25.5352
ltibia 19.2318
lfoot -5.31797 -3.30237
ltoes -20.9702
391
root 12.3176 18.756 9.84086 -152.979 1.90212 173.777
lowerback -17.9024 -3.28701 -7.69703
upperback 2.94773 -2.47241 -0.644251
thorax 13.7951 -1.684 2.91608
lowerneck -3.79832 -1.77105 -1.08375
upperneck 24.5036 -0.780974 1.6858
head 8.20639 0.368738 0.783073
rclavicle 2.33572e-015 1.26228e-014
rhumerus -37.9021 -17.0625 -77.8682
rradius 36.1333
rwrist -3.12455
rhand -9.52954 -411.741
rfingers 7.12502
rthumb 16.4366 -81.0645
lclavicle 2.33572e-015 1.26228e-014
lhumerus -18.7776 -9.72219 82.1403
lradius 36.6716
lwrist 0.311302
lhand -22.6697 -14.9242
lfingers 7.12502
lthumb 3.76203 15.0224
rfemur -43.0525 11.0774 11.133
rtibia 25.2719
rfoot -18.9729 -7.30094
rtoes -11.1785
lfemur -38.7457 -10.148 -25.3976
ltibia 19.2739
lfoot -5.3847 -2.8668
ltoes -21.0362
392
root 12.3049 18.7667 9.80441 -153.098 2.12954 173.973
lowerback -17.9377 -2.99858 -7.20993
upperback 2.96041 -2.1989 -0.665663
thorax 13.7693 -1.52119 2.69922
lowerneck -3.97735 -1.84406 -1.11267
upperneck 24.635 -0.867254 1.6718
head 8.28536 0.328519 0.778022
rclavicle -1.29955e-014 -2.28105e-014
rhumerus -37.8269 -17.3001 -77.8595
rradius 36.1507
rwrist -2.94401
rhand -9.04006 -412.714
rfingers 7.12502
rthumb 16.9079 -81.9982
lclavicle -1.29955e-014 -2.28105e-014
lhumerus -19.0654 -9.61142 82.3091
lradius 36.0693
lwrist -0.227979
lhand -22.9627 -15.3879
lfingers 7.12502
lthumb 3.47909 14.5635
rfemur -42.8021 11.013 11.3657
rtibia 25.1444
rfoot -18.6536 -6.71141
rtoes -11.3368
lfemur -38.521 -10.3727 -25.1457
ltibia 19.3761
lfoot -5.5548 -2.29759
ltoes -21.262
393
root 12.2946 18.7781 9.76712 -153.196 2.5182 174.266
lowerback -18.0717 -2.66006 -6.73458
upperback 3.05762 -1.84631 -0.682265
thorax 13.8999 -1.32919 2.51256
lowerneck -4.07789 -1.82696 -0.848069
upperneck 24.4536 -0.874283 1.51278
head 8.23923 0.322392 0.675968
rclavicle 1.38528e-014 -1.98039e-014
rhumerus -37.6115 -17.5919 -77.892
rradius 36.1833
rwrist -2.80445
rhand -8.59228 -413.713
rfingers 7.12502
rthumb 17.3389 -82.9593
lclavicle 1.38528e-014 -1.98039e-014
lhumerus -19.1371 -9.35185 82.3987
lradius 35.3747
lwrist -0.764391
lhand -23.2306 -15.8295
lfingers 7.12502
lthumb 3.22043 14.1259
rfemur -42.5235 10.9378 11.7238
rtibia 24.9399
rfoot -18.3347 -6.04276
rtoes -11.4361
lfemur -38.2645 -10.254 -24.8901
ltibia 19.4148
lfoot -5.79 -1.81615
ltoes -22.417
394
root 12.2834 18.7909 9.72848 -153.354 2.87949 174.483
lowerback -17.9075 -2.44059 -6.45195
upperback 2.93707 -1.65904 -0.574592
thorax 13.6307 -1.22132 2.5377
lowerneck -3.98535 -1.94963 -0.980675
upperneck 24.5387 -0.984709 1.40948
head 8.25356 0.256978 0.656895
rclavicle 6.06293e-015 9.10682e-015
rhumerus -37.8068 -17.2361 -77.7726
rradius 36.3792
rwrist -2.95999
rhand -8.66957 -412.948
rfingers 7.12502
rthumb 17.2645 -82.201
lclavicle 6.06293e-015 9.10682e-015
lhumerus -19.7335 -8.51312 82.683
lradius 34.6512
lwrist -1.54969
lhand -23.2261 -15.9463
lfingers 7.12502
lthumb 3.22477 14.009
rfemur -42.1651 10.7203 12.089
rtibia 24.8003
rfoot -18.2375 -5.38086
rtoes -11.6571
lfemur -37.8703 -9.9964 -24.8056
ltibia 19.3429
lfoot -5.88976 -1.66237
ltoes -21.5725
395
root 12.271 18.804 9.6911 -153.412 3.02181 174.647
lowerback -18.0261 -2.35736 -6.12892
upperback 2.88102 -1.63658 -0.461144
thorax 13.623 -1.19299 2.4874
lowerneck -3.62885 -1.85641 -0.995637
upperneck 24.2712 -0.809298 1.17989
head 8.09485 0.313605 0.594944
rclavicle 1.55052e-014 -1.64494e-014
rhumerus -37.7093 -16.7931 -77.78
rradius 36.4326
rwrist -3.04956
rhand -9.07169 -411.512
rfingers 7.12502
rthumb 16.8774 -80.7982
lclavicle 1.55052e-014 -1.64494e-014
lhumerus -20.3451 -7.62772 82.8768
lradius 34.084
lwrist -2.03989
lhand -23.1472 -15.2205
lfingers 7.12502
lthumb 3.30095 14.7337
rfemur -41.8296 10.4572 12.4112
rtibia 24.6282
rfoot -18.3392 -4.9656
rtoes -12.2378
lfemur -37.6084 -9.82363 -24.7674
ltibia 19.3063
lfoot -5.94362 -1.79984
ltoes -19.9442
396
root 12.2702 18.8134 9.65883 -153.216 3.17373 174.648
lowerback -18.4305 -2.38713 -6.16656
upperback 2.83454 -1.65464 -0.351167
thorax 13.8164 -1.21371 2.61908
lowerneck -3.60994 -1.75638 -0.992577
upperneck 24.1416 -0.656842 1.03378
head 8.04538 0.365799 0.556053
rclavicle 1.73937e-015 1.81888e-014
rhumerus -37.3329 -16.5799 -77.7681
rradius 36.2773
rwrist -2.82415
rhand -9.08757 -411.428
rfingers 7.12502
rthumb 16.8621 -80.7158
lclavicle 1.73937e-015 1.81888e-014
lhumerus -20.8793 -6.94976 83.0058
lradius 33.7457
lwrist -1.79662
lhand -23.1315 -14.6576
lfingers 7.12502
lthumb 3.31613 15.2964
rfemur -41.8223 10.4001 12.3975
rtibia 24.4371
rfoot -18.3437 -4.99734
rtoes -13.1958
lfemur -37.7008 -9.56815 -24.852
ltibia 19.3493
lfoot -6.06659 -1.95064
ltoes -20.6581
397
root 12.2658 18.8218 9.61361 -153.371 3.55141 174.622
lowerback -18.6295 -2.17857 -6.17282
upperback 3.18671 -1.34403 -0.406399
thorax 14.3189 -1.0902 2.64464
lowerneck -4.76053 -1.78058 -0.745984
upperneck 24.3035 -0.777264 0.915402
head 8.30888 0.291632 0.461254
rclavicle -7.70291e-015 -1.05356e-014
rhumerus -36.4638 -16.9333 -77.9555
rradius 36.266
rwrist -2.45441
rhand -8.60569 -412.707
rfingers 7.12502
rthumb 17.326 -81.9544
lclavicle -7.70291e-015 -1.05356e-014
lhumerus -20.5829 -6.56165 83.0249
lradius 33.1986
lwrist -1.43166
lhand -23.0834 -14.6258
lfingers 7.12502
lthumb 3.3626 15.3274
rfemur -41.2997 10.3752 12.4597
rtibia 24.0158
rfoot -18.3379 -4.90481
rtoes -14.8404
lfemur -37.148 -9.31151 -25.048
ltibia 19.0038
lfoot -6.24566 -1.92179
ltoes -20.7603
398
root 12.2653 18.8295 9.57578 -153.358 3.80465 174.399
lowerback -18.9774 -2.25874 -6.49898
upperback 3.08274 -1.35641 -0.334982
thorax 14.4201 -1.126 2.90306
lowerneck -4.28987 -1.73239 -0.961246
upperneck 24.1745 -0.657053 0.907372
head 8.17958 0.33651 0.505908
rclavicle 1.63997e-015 -4.17448e-015
rhumerus -36.5233 -16.3353 -77.968
rradius 36.583
rwrist -2.35463
rhand -8.2681 -413.673
rfingers 7.12502
rthumb 17.6509 -82.8923
lclavicle 1.63997e-015 -4.17448e-015
lhumerus -21.3477 -5.36171 83.1927
lradius 32.6452
lwrist -1.84436
lhand -23.3027 -14.1936
lfingers 7.12502
lthumb 3.15079 15.7629
rfemur -40.9537 10.2063 12.2918
rtibia 23.5521
rfoot -18.3348 -4.94658
rtoes -16.6408
lfemur -36.8509 -9.24908 -25.3785
ltibia 18.7379
lfoot -6.41252 -2.06896
ltoes -20.2158
399
root 12.2673 18.8368 9.5393 -153.243 4.0547 174.056
lowerback -19.2672 -2.44866 -7.00488
upperback 2.87029 -1.47673 -0.244903
thorax 14.3778 -1.21874 3.25413
lowerneck -3.71482 -1.59329 -1.24809
upperneck 24.0066 -0.422993 0.997005
head 8.0179 0.439604 0.603436
rclavicle -9.74045e-015 1.45113e-014
rhumerus -36.5999 -15.588 -77.9177
rradius 36.7845
rwrist -2.30632
rhand -8.14766 -413.442
rfingers 7.12502
rthumb 17.7668 -82.6508
lclavicle -9.74045e-015 1.45113e-014
lhumerus -22.2177 -4.13619 83.3303
lradius 32.0236
lwrist -2.23275
lhand -23.6771 -13.9089
lfingers 7.12502
lthumb 2.78919 16.0526
rfemur -40.7527 10.1832 11.8664
rtibia 23.1106
rfoot -18.2698 -5.04581
rtoes -17.5417
lfemur -36.7524 -9.34355 -25.7793
ltibia 18.6108
lfoot -6.57136 -2.05281
ltoes -21.4026
400
root 12.2677 18.841 9.50548 -153.07 4.30164 173.742
lowerback -19.4598 -2.61923 -7.43527
upperback 2.63003 -1.59306 -0.171965
thorax 14.2423 -1.29712 3.54628
lowerneck -3.48458 -1.47913 -1.23983
upperneck 24.067 -0.178756 0.75261
head 7.99389 0.545308 0.541607
rclavicle -3.54831e-014 9.34288e-015
rhumerus -36.5959 -15.0122 -77.8326
rradius 36.9155
rwrist -2.28785
rhand -8.07847 -412.893
rfingers 7.12502
rthumb 17.8333 -82.0953
lclavicle -3.54831e-014 9.34288e-015
lhumerus -22.9618 -3.23225 83.4146
lradius 31.3246
lwrist -2.00139
lhand -24.0757 -14.3329
lfingers 7.12502
lthumb 2.40426 15.6333
rfemur -40.6811 10.2205 11.44
rtibia 22.7311
rfoot -18.1823 -5.07305
rtoes -17.9821
lfemur -36.8018 -9.51015 -26.1126
ltibia 18.5916
lfoot -6.62866 -1.85249
ltoes -21.9777
401
root 12.2685 18.8455 9.47162 -152.921 4.40674 173.597
lowerback -19.6912 -2.71823 -7.59923
upperback 2.51644 -1.66548 -0.149247
thorax 14.2624 -1.33944 3.64029
lowerneck -3.61239 -1.42297 -0.967733
upperneck 24.2188 -0.058881 0.489091
head 8.06601 0.606407 0.418867
rclavicle -5.26779e-015 6.36111e-015
rhumerus -36.4182 -14.8033 -77.9104
rradius 37.0737
rwrist -2.33236
rhand -8.44476 -412.523
rfingers 7.12502
rthumb 17.4809 -81.7567
lclavicle -5.26779e-015 6.36111e-015
lhumerus -23.4463 -2.57207 83.3503
lradius 30.6239
lwrist -1.68593
lhand -24.3004 -14.6568
lfingers 7.12502
lthumb 2.18726 15.3118
rfemur -40.4657 10.1253 11.3219
rtibia 22.2294
rfoot -18.0099 -4.99057
rtoes -17.8068
lfemur -36.7804 -9.56499 -26.2842
ltibia 18.4915
lfoot -6.49538 -1.74545
ltoes -22.5104
402
root 12.272 18.853 9.43089 -152.964 4.46199 173.689
lowerback -19.8485 -2.7164 -7.50604
upperback 2.47277 -1.67686 -0.121528
thorax 14.302 -1.33828 3.61319
lowerneck -3.6708 -1.38502 -0.75093
upperneck 24.2754 -0.00928316 0.408009
head 8.09444 0.643282 0.359506
rclavicle 3.01159e-014 -1.59028e-014
rhumerus -36.3813 -14.661 -78.043
rradius 37.3121
rwrist -2.43151
rhand -8.89262 -412.19
rfingers 7.12502
rthumb 17.0498 -81.4616
lclavicle 3.01159e-014 -1.59028e-014
lhumerus -23.9358 -2.08931 83.2611
lradius 29.847
lwrist -1.46709
lhand -24.1552 -14.6166
lfingers 7.12502
lthumb 2.3275 15.3505
rfemur -39.9106 10.1524 11.4996
rtibia 21.566
rfoot -17.8001 -4.88826
rtoes -16.9617
lfemur -36.4328 -9.51264 -26.1889
ltibia 18.2363
lfoot -6.44022 -1.64169
ltoes -23.6841
